#!OML:ASF F:\VICON\USERDATA\INSTALL\Justin_Nancy\Justin_Nancy.ASF
:FULLY-SPECIFIED
:DEGREES
128
root -7.35821 17.2683 -1.57079 -4.8832 52.4784 -10.0425
lowerback 7.66432 -1.09585 2.83326
upperback 0.0514849 -0.926648 4.96177
thorax -4.21774 -0.440016 3.67575
lowerneck -17.7001 -3.26891 -7.74518
upperneck 20.5358 -2.89758 2.59053
head 9.58496 -1.63553 1.79758
rclavicle 9.15403e-014 4.37326e-014
rhumerus -37.0016 -1.75622 -74.8597
rradius 35.7374
rwrist 1.28973
rhand -21.157 11.8472
rfingers 7.12502
rthumb 5.22276 -18.0685
lclavicle 9.15403e-014 4.37326e-014
lhumerus -31.4973 1.88079 92.2666
lradius 32.3573
lwrist 0.557332
lhand -15.6516 26.1856
lfingers 7.12502
lthumb 10.5362 55.9015
rfemur -7.57766 7.54952 16.4901
rtibia 34.282
rfoot -12.1193 -7.82712
rtoes -13.1099
lfemur -30.7453 1.21952 -25.803
ltibia 52.0741
lfoot -21.1886 7.19014
ltoes -2.90391
129
root -7.2962 17.2691 -1.39962 -5.36264 54.2353 -10.8576
lowerback 7.94496 -0.936705 3.40292
upperback -0.221517 -0.637899 4.74819
thorax -4.68265 -0.312312 3.11071
lowerneck -17.51 -3.37161 -7.35137
upperneck 20.5242 -3.20855 2.77306
head 9.55695 -1.72788 1.75615
rclavicle -1.25533e-013 -3.57812e-014
rhumerus -37.4682 -2.12493 -74.5486
rradius 36.1832
rwrist 1.10582
rhand -21.5715 11.7167
rfingers 7.12502
rthumb 4.82255 -18.2084
lclavicle -1.25533e-013 -3.57812e-014
lhumerus -32.0293 1.41839 91.628
lradius 32.2883
lwrist 1.49828
lhand -16.1942 26.6687
lfingers 7.12502
lthumb 10.0128 56.4105
rfemur -6.33478 9.12079 16.9839
rtibia 33.0932
rfoot -12.5189 -6.91945
rtoes -12.6255
lfemur -31.9389 1.38578 -26.3725
ltibia 50.5439
lfoot -21.2533 6.73243
ltoes -4.39983
130
root -7.23432 17.2621 -1.22441 -6.34509 55.8886 -12.1389
lowerback 8.1633 -0.873407 3.92311
upperback -0.308578 -0.471814 4.83476
thorax -4.90709 -0.239862 2.89636
lowerneck -17.577 -3.3935 -7.36634
upperneck 20.4422 -3.29843 3.0679
head 9.54983 -1.73553 1.84843
rclavicle 1.22253e-013 -2.14687e-014
rhumerus -37.5021 -2.06437 -74.0664
rradius 36.5051
rwrist 0.769952
rhand -22.1176 11.4193
rfingers 7.12502
rthumb 4.29518 -18.5171
lclavicle 1.22253e-013 -2.14687e-014
lhumerus -32.2267 1.28391 91.2718
lradius 32.2795
lwrist 2.41067
lhand -16.5116 26.7768
lfingers 7.12502
lthumb 9.70662 56.5331
rfemur -4.9112 10.0617 17.9277
rtibia 31.8959
rfoot -12.3657 -6.34902
rtoes -17.7022
lfemur -32.9623 1.67009 -26.6726
ltibia 49.0532
lfoot -21.5033 6.1623
ltoes -4.569
131
root -7.17421 17.2585 -1.05861 -8.09222 57.4014 -14.3204
lowerback 8.32893 -0.895406 4.84652
upperback -0.267386 -0.369844 5.12812
thorax -4.96755 -0.202552 2.67738
lowerneck -17.7924 -3.42715 -7.76046
upperneck 20.219 -3.32894 3.5438
head 9.52834 -1.72327 2.07208
rclavicle 9.93923e-015 7.95139e-015
rhumerus -37.0733 -1.65393 -73.6457
rradius 36.3492
rwrist 0.541734
rhand -22.1877 11.1553
rfingers 7.12502
rthumb 4.22749 -18.7825
lclavicle 9.93923e-015 7.95139e-015
lhumerus -32.1101 1.43274 90.9121
lradius 32.2315
lwrist 2.87702
lhand -16.0159 26.2263
lfingers 7.12502
lthumb 10.1848 55.9597
rfemur -3.5496 11.8274 19.2237
rtibia 30.7172
rfoot -13.1331 -4.66238
rtoes -11.1607
lfemur -34.0165 2.50554 -26.6408
ltibia 47.5145
lfoot -21.591 5.45379
ltoes -4.14553
132
root -7.1105 17.2397 -0.903167 -9.49547 58.8438 -16.1495
lowerback 8.45751 -0.857383 5.70656
upperback -0.274402 -0.201434 5.27208
thorax -5.05576 -0.135207 2.32962
lowerneck -17.9795 -3.47139 -8.02701
upperneck 20.0401 -3.36787 3.84143
head 9.5126 -1.72525 2.21177
rclavicle 3.44891e-014 7.15625e-014
rhumerus -36.7107 -1.88004 -73.0192
rradius 36.2374
rwrist 1.00294
rhand -21.4705 10.9529
rfingers 7.12502
rthumb 4.92006 -18.97
lclavicle 3.44891e-014 7.15625e-014
lhumerus -31.9368 1.74822 90.3945
lradius 32.0032
lwrist 2.71049
lhand -15.2974 25.6483
lfingers 7.12502
lthumb 10.8779 55.3466
rfemur -2.34353 13.2226 20.2402
rtibia 29.5051
rfoot -13.5227 -3.34328
rtoes -6.78327
lfemur -35.1391 3.74723 -27.1771
ltibia 45.9123
lfoot -21.6416 4.65119
ltoes -4.71393
133
root -7.04335 17.2112 -0.738493 -10.9808 60.2133 -17.7621
lowerback 8.77172 -0.825177 6.16446
upperback -0.229967 -0.0655295 5.41127
thorax -5.18952 -0.0750004 2.20822
lowerneck -18.1036 -3.46122 -7.81919
upperneck 19.8836 -3.36659 3.69729
head 9.47347 -1.72245 2.12506
rclavicle 9.0447e-015 9.78021e-014
rhumerus -36.6135 -2.68378 -72.2448
rradius 36.5041
rwrist 1.94791
rhand -20.9071 10.8319
rfingers 7.12502
rthumb 5.46408 -19.0777
lclavicle 9.0447e-015 9.78021e-014
lhumerus -31.8674 2.05701 89.792
lradius 31.8757
lwrist 2.51938
lhand -15.7256 26.8063
lfingers 7.12502
lthumb 10.4649 56.5258
rfemur -0.84032 14.4878 21.3188
rtibia 28.3617
rfoot -13.8238 -2.72064
rtoes -5.43703
lfemur -35.89 5.31957 -27.9855
ltibia 44.217
lfoot -21.9516 4.52147
ltoes -5.72018
134
root -6.96599 17.1849 -0.575787 -12.8634 61.4979 -19.3662
lowerback 9.32273 -0.938963 6.48546
upperback 0.0343106 -0.120674 5.61691
thorax -5.2249 -0.0992675 2.25861
lowerneck -18.4135 -3.36625 -7.79893
upperneck 19.5671 -3.19997 3.63699
head 9.40704 -1.6459 2.11858
rclavicle -2.00773e-014 3.73715e-014
rhumerus -36.1393 -2.56135 -71.8561
rradius 36.4632
rwrist 2.26648
rhand -20.7321 11.0767
rfingers 7.12502
rthumb 5.63304 -18.8285
lclavicle -2.00773e-014 3.73715e-014
lhumerus -31.6208 2.96667 89.0922
lradius 31.7819
lwrist 2.01114
lhand -17.3444 29.0801
lfingers 7.12502
lthumb 8.90301 58.8723
rfemur 1.12597 15.2224 22.487
rtibia 27.2541
rfoot -14.1172 -2.3256
rtoes -6.67629
lfemur -36.0208 6.63441 -28.7655
ltibia 42.4166
lfoot -22.0645 3.58344
ltoes -3.56101
135
root -6.88576 17.1689 -0.408154 -13.2221 62.5547 -20.6507
lowerback 8.50375 -0.894635 6.41138
upperback 0.0341853 -0.134329 5.9035
thorax -4.76302 -0.0893858 2.58814
lowerneck -18.4217 -3.11994 -7.44513
upperneck 18.7376 -2.80708 2.98498
head 9.0807 -1.50301 1.88193
rclavicle -1.0635e-014 3.49861e-014
rhumerus -35.5078 -1.95662 -71.68
rradius 36.2028
rwrist 2.1513
rhand -21.2589 11.4693
rfingers 7.12502
rthumb 5.12432 -18.4487
lclavicle -1.0635e-014 3.49861e-014
lhumerus -31.1603 4.34877 88.4639
lradius 31.4182
lwrist 1.43848
lhand -16.29 27.5191
lfingers 7.12502
lthumb 9.92038 57.2653
rfemur 1.59914 15.936 23.1009
rtibia 26.1658
rfoot -14.2438 -1.52108
rtoes -6.00008
lfemur -37.4806 8.00571 -29.9476
ltibia 40.5008
lfoot -21.8473 2.62451
ltoes -1.52396
136
root -6.80923 17.1349 -0.235213 -14.6674 64.0043 -22.4227
lowerback 8.45123 -0.941248 6.56418
upperback 0.0255322 -0.164835 6.10213
thorax -4.74432 -0.10045 2.71609
lowerneck -17.4961 -2.79529 -6.5179
upperneck 17.1035 -2.38005 1.56184
head 8.30516 -1.37794 1.30257
rclavicle -4.16454e-014 -3.18055e-014
rhumerus -35.1612 -1.61541 -71.4322
rradius 35.9559
rwrist 1.96853
rhand -21.8125 11.6327
rfingers 7.12502
rthumb 4.58979 -18.2975
lclavicle -4.16454e-014 -3.18055e-014
lhumerus -30.8783 4.70627 88.1776
lradius 31.2359
lwrist 2.47117
lhand -8.92385 19.6508
lfingers 7.12502
lthumb 17.0197 48.9252
rfemur 2.81622 16.124 24.0485
rtibia 25.0334
rfoot -14.5497 -0.758386
rtoes -4.88961
lfemur -38.2476 9.45872 -31.2271
ltibia 38.5508
lfoot -21.6803 1.94102
ltoes -0.473633
137
root -6.72522 17.0952 -0.0727194 -15.8627 65.4706 -23.7678
lowerback 8.60454 -1.07275 6.60795
upperback -0.0482722 -0.304274 6.14444
thorax -4.90965 -0.170859 2.75969
lowerneck -17.5699 -2.80391 -6.82025
upperneck 17.0855 -2.37919 1.91474
head 8.32023 -1.36041 1.47021
rclavicle 1.53064e-014 1.51076e-014
rhumerus -34.8177 -0.732426 -71.4422
rradius 35.6805
rwrist 1.7692
rhand -21.992 11.495
rfingers 7.12502
rthumb 4.41653 -18.439
lclavicle 1.53064e-014 1.51076e-014
lhumerus -30.7067 6.88915 86.7568
lradius 30.4518
lwrist -0.735422
lhand -11.7708 22.3236
lfingers 7.12502
lthumb 14.2779 51.8128
rfemur 4.10572 15.5426 24.6176
rtibia 23.891
rfoot -14.7989 0.415341
rtoes -2.72771
lfemur -38.7146 10.5078 -32.6705
ltibia 36.5732
lfoot -21.6361 1.771
ltoes 0.00636284
138
root -6.64145 17.0532 0.080161 -17.4302 66.3371 -25.6622
lowerback 8.66052 -0.942383 7.04357
upperback -0.0936643 -0.0650448 6.19183
thorax -4.99198 -0.0610871 2.53876
lowerneck -18.5239 -3.12842 -8.06378
upperneck 18.0664 -2.71089 3.33985
head 8.87729 -1.45559 2.11314
rclavicle -2.60408e-014 -5.56597e-014
rhumerus -34.6126 -0.874379 -71.1627
rradius 35.5535
rwrist 2.59537
rhand -21.3904 11.0297
rfingers 7.12502
rthumb 4.99744 -18.8914
lclavicle -2.60408e-014 -5.56597e-014
lhumerus -30.4179 8.0132 85.8607
lradius 30.0233
lwrist -2.2362
lhand -12.7567 23.2884
lfingers 7.12502
lthumb 13.3278 52.8421
rfemur 5.12007 14.9525 25.4815
rtibia 22.7932
rfoot -14.9167 1.32508
rtoes -2.54189
lfemur -39.2237 11.1812 -33.4618
ltibia 34.5215
lfoot -21.496 2.30046
ltoes -0.535715
139
root -6.55128 17.0095 0.23602 -19.0669 67.1488 -27.5962
lowerback 8.64356 -0.689625 7.46658
upperback -0.133062 0.319035 6.14958
thorax -5.02051 0.118367 2.20948
lowerneck -18.9011 -3.371 -8.46716
upperneck 18.3941 -2.99625 3.78321
head 9.0891 -1.56946 2.29361
rclavicle 6.0033e-014 -3.02153e-014
rhumerus -34.6122 -1.75824 -70.7601
rradius 35.4156
rwrist 3.53933
rhand -20.701 10.7435
rfingers 7.12502
rthumb 5.66302 -19.1609
lclavicle 6.0033e-014 -3.02153e-014
lhumerus -30.178 7.5255 85.4899
lradius 29.9657
lwrist -1.9398
lhand -13.176 23.692
lfingers 7.12502
lthumb 12.9236 53.2718
rfemur 6.23792 14.1361 26.3471
rtibia 21.5542
rfoot -14.9974 1.97513
rtoes -3.18646
lfemur -39.5965 11.7534 -34.1589
ltibia 32.506
lfoot -21.2051 2.85359
ltoes -1.5796
140
root -6.46006 16.9734 0.356512 -18.7772 67.9501 -27.8745
lowerback 8.53934 -0.494666 7.61304
upperback -0.36956 0.580315 5.88307
thorax -5.20267 0.228818 1.81572
lowerneck -19.0997 -3.41658 -8.73016
upperneck 18.6503 -3.05386 4.1729
head 9.22787 -1.57254 2.46533
rclavicle -2.56432e-014 1.03368e-014
rhumerus -34.4625 -1.67349 -70.6029
rradius 35.2166
rwrist 3.22915
rhand -19.9954 10.842
rfingers 7.12502
rthumb 6.3443 -19.043
lclavicle -2.56432e-014 1.03368e-014
lhumerus -30.2236 6.54784 85.268
lradius 30.2293
lwrist -0.194399
lhand -15.0209 25.1389
lfingers 7.12502
lthumb 11.1446 54.823
rfemur 6.87541 12.6566 26.0953
rtibia 20.081
rfoot -14.8956 3.09397
rtoes -4.4687
lfemur -40.2396 11.5156 -35.2573
ltibia 30.6334
lfoot -20.8082 3.8611
ltoes -2.66794
141
root -6.35997 16.9382 0.531039 -20.7293 68.8921 -29.8657
lowerback 8.55963 -0.485716 7.3922
upperback -0.266344 0.579093 6.04385
thorax -5.10867 0.243207 2.10641
lowerneck -18.9531 -3.52332 -8.05513
upperneck 18.4243 -3.36836 3.9901
head 9.12784 -1.69042 2.24715
rclavicle 2.5842e-015 7.31528e-014
rhumerus -33.9303 -1.51229 -70.2316
rradius 34.7347
rwrist 2.6415
rhand -19.3731 11.9608
rfingers 7.12502
rthumb 6.945 -17.9053
lclavicle 2.5842e-015 7.31528e-014
lhumerus -30.0442 6.33929 84.9364
lradius 30.2954
lwrist 0.912674
lhand -16.8595 26.5038
lfingers 7.12502
lthumb 9.37089 56.2755
rfemur 8.37728 11.2127 26.977
rtibia 18.4622
rfoot -14.9348 2.96372
rtoes -6.74635
lfemur -40.0806 10.7214 -35.1086
ltibia 28.9144
lfoot -20.0871 4.31993
ltoes -2.61279
142
root -6.26485 16.9062 0.68097 -22.911 69.0462 -32.3474
lowerback 8.58148 -0.225765 7.68918
upperback -0.194313 0.980777 6.30212
thorax -5.04099 0.446419 2.16207
lowerneck -19.0277 -3.63329 -7.90572
upperneck 18.3096 -3.56062 4.00861
head 9.11101 -1.76604 2.20122
rclavicle 7.55382e-015 -8.74653e-015
rhumerus -33.3639 -1.84431 -69.6549
rradius 34.1452
rwrist 2.50807
rhand -18.4492 12.8634
rfingers 7.12502
rthumb 7.8368 -16.9714
lclavicle 7.55382e-015 -8.74653e-015
lhumerus -29.6803 7.01159 84.3208
lradius 30.0487
lwrist 0.601641
lhand -17.1539 26.543
lfingers 7.12502
lthumb 9.08679 56.3273
rfemur 9.53747 10.4363 28.2625
rtibia 16.9252
rfoot -14.7713 2.68966
rtoes -7.39767
lfemur -40.1805 9.55964 -33.9958
ltibia 27.2667
lfoot -18.7247 4.94124
ltoes -0.532194
